<svg style="display:none" xmlns="http://www.w3.org/2000/svg" xmlns:xlink="http://www.w3.org/1999/xlink" version="1.1">
	<symbol id="search" xmlns="http://www.w3.org/2000/svg" viewBox="0 0 18 18" fill="none"><path d="M13.9994 13.2923L17.8536 17.1464C18.0488 17.3417 18.0488 17.6583 17.8536 17.8536C17.6583 18.0488 17.3417 18.0488 17.1464 17.8536L13.2923 13.9994C11.882 15.2445 10.0292 16 8 16C3.58172 16 0 12.4183 0 8C0 3.58172 3.58172 0 8 0C12.4183 0 16 3.58172 16 8C16 10.0292 15.2445 11.882 13.9994 13.2923ZM8 15C11.866 15 15 11.866 15 8C15 4.13401 11.866 1 8 1C4.13401 1 1 4.13401 1 8C1 11.866 4.13401 15 8 15Z" fill="currentColor"/></symbol>
	<symbol id="shopping_bag" xmlns="http://www.w3.org/2000/svg" viewBox="0 0 20 19" fill="none"><path d="M7.21154 4.50001V6.50001C7.21154 7.29565 7.53166 8.05871 8.10148 8.62132C8.6713 9.18393 9.44415 9.5 10.25 9.5C11.0559 9.5 11.8287 9.18393 12.3985 8.62132C12.9683 8.05871 13.2885 7.29565 13.2885 6.50001V4.50001M18.231 18.5H2.26897C2.12605 18.5008 1.98456 18.4718 1.85381 18.4148C1.72305 18.3578 1.606 18.2742 1.51033 18.1693C1.41467 18.0645 1.34256 17.9408 1.29875 17.8065C1.25494 17.6722 1.24042 17.5302 1.25615 17.39L3.05897 1.39002C3.08651 1.1443 3.20526 0.91736 3.3923 0.753002C3.57934 0.588645 3.82141 0.498519 4.07179 0.500018H16.4282C16.6786 0.498519 16.9207 0.588645 17.1077 0.753002C17.2947 0.91736 17.4135 1.1443 17.441 1.39002L19.2439 17.39C19.2596 17.5302 19.2451 17.6722 19.2012 17.8065C19.1574 17.9408 19.0853 18.0645 18.9897 18.1693C18.894 18.2742 18.7769 18.3578 18.6462 18.4148C18.5154 18.4718 18.374 18.5008 18.231 18.5Z" stroke="currentColor" stroke-linecap="round" stroke-linejoin="round"/></symbol>
	<symbol id="menu" xmlns="http://www.w3.org/2000/svg" viewBox="0 -960 960 960" fill="currentColor"><path d="M120-240v-80h720v80H120Zm0-200v-80h720v80H120Zm0-200v-80h720v80H120Z"/></symbol>
	<symbol id="account_circle" xmlns="http://www.w3.org/2000/svg" viewBox="0 -960 960 960" fill="currentColor"><path d="M234-276q51-39 114-61.5T480-360q69 0 132 22.5T726-276q35-41 54.5-93T800-480q0-133-93.5-226.5T480-800q-133 0-226.5 93.5T160-480q0 59 19.5 111t54.5 93Zm246-164q-59 0-99.5-40.5T340-580q0-59 40.5-99.5T480-720q59 0 99.5 40.5T620-580q0 59-40.5 99.5T480-440Zm0 360q-83 0-156-31.5T197-197q-54-54-85.5-127T80-480q0-83 31.5-156T197-763q54-54 127-85.5T480-880q83 0 156 31.5T763-763q54 54 85.5 127T880-480q0 83-31.5 156T763-197q-54 54-127 85.5T480-80Zm0-80q53 0 100-15.5t86-44.5q-39-29-86-44.5T480-280q-53 0-100 15.5T294-220q39 29 86 44.5T480-160Zm0-360q26 0 43-17t17-43q0-26-17-43t-43-17q-26 0-43 17t-17 43q0 26 17 43t43 17Zm0-60Zm0 360Z"/></symbol>
		<symbol id="account_icon" xmlns="http://www.w3.org/2000/svg" viewBox="0 0 18 20" fill="none"><path d="M14 6C14 6.98891 13.7068 7.95561 13.1573 8.77785C12.6079 9.6001 11.827 10.241 10.9134 10.6194C9.99979 10.9978 8.99445 11.0969 8.02455 10.9039C7.05464 10.711 6.16373 10.2348 5.46447 9.53553C4.7652 8.83627 4.289 7.94536 4.09607 6.97545C3.90315 6.00555 4.00216 5.00021 4.3806 4.08658C4.75904 3.17295 5.3999 2.39206 6.22215 1.84265C7.04439 1.29324 8.01109 1 9 1C10.3261 1 11.5979 1.52678 12.5355 2.46447C13.4732 3.40215 14 4.67392 14 6ZM6 11C4.67392 11 3.40215 11.5268 2.46447 12.4645C1.52678 13.4021 1 14.6739 1 16V16V17C1 17 3 19 9 19C15 19 17 17 17 17V16C17 14.6739 16.4732 13.4021 15.5355 12.4645C14.5979 11.5268 13.3261 11 12 11H6Z" stroke="currentColor" stroke-linecap="round" stroke-linejoin="round"/></symbol>
	<symbol id="close" xmlns="http://www.w3.org/2000/svg" viewBox="0 -960 960 960" fill="currentColor"><path d="m256-200-56-56 224-224-224-224 56-56 224 224 224-224 56 56-224 224 224 224-56 56-224-224-224 224Z"/></symbol>
	<symbol id="chevron-right" xmlns="http://www.w3.org/2000/svg" viewBox="0 -960 960 960" fill="currentColor"><path d="M504-480 320-664l56-56 240 240-240 240-56-56 184-184Z"/></symbol>
	<symbol id="favorite" xmlns="http://www.w3.org/2000/svg" viewBox="0 0 20 22" fill="none"><path d="M6 1C3.239 1 1 3.23669 1 5.99621C1 8.22381 1.875 13.5107 10.488 18.8551C10.6423 18.9499 10.8194 19 11 19C11.1806 19 11.3577 18.9499 11.512 18.8551C20.125 13.5107 21 8.22381 21 5.99621C21 3.23669 18.761 1 16 1C13.239 1 11 4.028 11 4.028C11 4.028 8.761 1 6 1Z" stroke="currentColor" stroke-linecap="round" stroke-linejoin="round"/></symbol>
	<symbol id="favorite-button" xmlns="http://www.w3.org/2000/svg" viewBox="0 0 20 22" fill="currentColor"><path d="M6 1C3.239 1 1 3.23669 1 5.99621C1 8.22381 1.875 13.5107 10.488 18.8551C10.6423 18.9499 10.8194 19 11 19C11.1806 19 11.3577 18.9499 11.512 18.8551C20.125 13.5107 21 8.22381 21 5.99621C21 3.23669 18.761 1 16 1C13.239 1 11 4.028 11 4.028C11 4.028 8.761 1 6 1Z" stroke="#bea669" stroke-linecap="round" stroke-linejoin="round"/></symbol>
	<symbol id="home_pin" xmlns="http://www.w3.org/2000/svg" viewBox="0 -960 960 960" fill="currentColor"><path d="M360-440h80v-110h80v110h80v-190l-120-80-120 80v190Zm120 254q122-112 181-203.5T720-552q0-109-69.5-178.5T480-800q-101 0-170.5 69.5T240-552q0 71 59 162.5T480-186Zm0 106Q319-217 239.5-334.5T160-552q0-150 96.5-239T480-880q127 0 223.5 89T800-552q0 100-79.5 217.5T480-80Zm0-480Z"/></symbol>
	<symbol id="call" xmlns="http://www.w3.org/2000/svg" viewBox="0 -960 960 960" fill="currentColor"><path d="M798-120q-125 0-247-54.5T329-329Q229-429 174.5-551T120-798q0-18 12-30t30-12h162q14 0 25 9.5t13 22.5l26 140q2 16-1 27t-11 19l-97 98q20 37 47.5 71.5T387-386q31 31 65 57.5t72 48.5l94-94q9-9 23.5-13.5T670-390l138 28q14 4 23 14.5t9 23.5v162q0 18-12 30t-30 12ZM241-600l66-66-17-94h-89q5 41 14 81t26 79Zm358 358q39 17 79.5 27t81.5 13v-88l-94-19-67 67ZM241-600Zm358 358Z"/></symbol>
	<symbol id="local_shipping" xmlns="http://www.w3.org/2000/svg" viewBox="0 -960 960 960" fill="currentColor"><path d="M240-160q-50 0-85-35t-35-85H40v-440q0-33 23.5-56.5T120-800h560v160h120l120 160v200h-80q0 50-35 85t-85 35q-50 0-85-35t-35-85H360q0 50-35 85t-85 35Zm0-80q17 0 28.5-11.5T280-280q0-17-11.5-28.5T240-320q-17 0-28.5 11.5T200-280q0 17 11.5 28.5T240-240ZM120-360h32q17-18 39-29t49-11q27 0 49 11t39 29h272v-360H120v360Zm600 120q17 0 28.5-11.5T760-280q0-17-11.5-28.5T720-320q-17 0-28.5 11.5T680-280q0 17 11.5 28.5T720-240Zm-40-200h170l-90-120h-80v120ZM360-540Z"/></symbol>
	<symbol id="pan_zoom" xmlns="http://www.w3.org/2000/svg" viewBox="0 -960 960 960" fill="currentColor"><path d="M120-120v-240h80v104l124-124 56 56-124 124h104v80H120Zm516-460-56-56 124-124H600v-80h240v240h-80v-104L636-580Z"/></symbol>
	<symbol id="share" xmlns="http://www.w3.org/2000/svg" viewBox="0 0 22 22" fill="white">
<path
          d="M7.31111 9.51111L14.6667 5.83333M4.33333 7.66667C4.9926 7.66667 5.63707 7.86216 6.18523 8.22844C6.7334 8.59471 7.16064 9.1153 7.41293 9.72439C7.66522 10.3335 7.73123 11.0037 7.60262 11.6503C7.474 12.2969 7.15653 12.8908 6.69036 13.357C6.22418 13.8232 5.63024 14.1407 4.98363 14.2693C4.33703 14.3979 3.66681 14.3319 3.05772 14.0796C2.44863 13.8273 1.92804 13.4001 1.56177 12.8519C1.1955 12.3037 1 11.6593 1 11C1 10.1159 1.35119 9.2681 1.97631 8.64298C2.60143 8.01786 3.44928 7.66667 4.33333 7.66667V7.66667ZM14.3333 17.6667C14.3333 18.3259 14.5288 18.9704 14.8951 19.5186C15.2614 20.0667 15.782 20.494 16.3911 20.7463C17.0001 20.9986 17.6704 21.0646 18.317 20.936C18.9636 20.8073 19.5575 20.4899 20.0237 20.0237C20.4899 19.5575 20.8073 18.9636 20.936 18.317C21.0646 17.6704 20.9986 17.0001 20.7463 16.3911C20.494 15.782 20.0667 15.2614 19.5186 14.8951C18.9704 14.5288 18.3259 14.3333 17.6667 14.3333C16.7826 14.3333 15.9348 14.6845 15.3096 15.3096C14.6845 15.9348 14.3333 16.7826 14.3333 17.6667ZM7.31111 12.4889L14.6667 16.1667L7.31111 12.4889ZM17.6667 7.66667C18.3259 7.66667 18.9704 7.47117 19.5186 7.1049C20.0667 6.73863 20.494 6.21803 20.7463 5.60895C20.9986 4.99986 21.0646 4.32964 20.936 3.68303C20.8073 3.03643 20.4899 2.44249 20.0237 1.97631C19.5575 1.51014 18.9636 1.19267 18.317 1.06405C17.6704 0.935433 17.0001 1.00144 16.3911 1.25374C15.782 1.50603 15.2614 1.93327 14.8951 2.48143C14.5288 3.0296 14.3333 3.67406 14.3333 4.33333C14.3333 5.21739 14.6845 6.06524 15.3096 6.69036C15.9348 7.31548 16.7826 7.66667 17.6667 7.66667Z"
          strokeLinecap="round"
          strokeLinejoin="round"
              stroke="#bea669"

        />
	</symbol>
	<symbol id="sell" xmlns="http://www.w3.org/2000/svg" viewBox="0 -960 960 960" fill="currentColor"><path d="M856-390 570-104q-12 12-27 18t-30 6q-15 0-30-6t-27-18L103-457q-11-11-17-25.5T80-513v-287q0-33 23.5-56.5T160-880h287q16 0 31 6.5t26 17.5l352 353q12 12 17.5 27t5.5 30q0 15-5.5 29.5T856-390ZM513-160l286-286-353-354H160v286l353 354ZM260-640q25 0 42.5-17.5T320-700q0-25-17.5-42.5T260-760q-25 0-42.5 17.5T200-700q0 25 17.5 42.5T260-640Zm220 160Z"/></symbol>
	<symbol id="check-circle" xmlns="http://www.w3.org/2000/svg" viewBox="0 -960 960 960" fill="currentColor"><path d="m424-296 282-282-56-56-226 226-114-114-56 56 170 170Zm56 216q-83 0-156-31.5T197-197q-54-54-85.5-127T80-480q0-83 31.5-156T197-763q54-54 127-85.5T480-880q83 0 156 31.5T763-763q54 54 85.5 127T880-480q0 83-31.5 156T763-197q-54 54-127 85.5T480-80Zm0-80q134 0 227-93t93-227q0-134-93-227t-227-93q-134 0-227 93t-93 227q0 134 93 227t227 93Zm0-320Z"/></symbol>
	<symbol id="error" xmlns="http://www.w3.org/2000/svg" viewBox="0 -960 960 960" fill="currentColor"><path d="M480-280q17 0 28.5-11.5T520-320q0-17-11.5-28.5T480-360q-17 0-28.5 11.5T440-320q0 17 11.5 28.5T480-280Zm-40-160h80v-240h-80v240Zm40 360q-83 0-156-31.5T197-197q-54-54-85.5-127T80-480q0-83 31.5-156T197-763q54-54 127-85.5T480-880q83 0 156 31.5T763-763q54 54 85.5 127T880-480q0 83-31.5 156T763-197q-54 54-127 85.5T480-80Zm0-80q134 0 227-93t93-227q0-134-93-227t-227-93q-134 0-227 93t-93 227q0 134 93 227t227 93Zm0-320Z"/></symbol>
	<symbol id="trash" xmlns="http://www.w3.org/2000/svg" viewBox="0 -960 960 960" fill="currentColor"><path d="M280-120q-33 0-56.5-23.5T200-200v-520h-40v-80h200v-40h240v40h200v80h-40v520q0 33-23.5 56.5T680-120H280Zm400-600H280v520h400v-520ZM360-280h80v-360h-80v360Zm160 0h80v-360h-80v360ZM280-720v520-520Z"/></symbol>
	<symbol id="up-sm-arrow" xmlns="http://www.w3.org/2000/svg" viewBox="0 0 14 8" fill="none" ><path
                d="M13 7L7 1L1 7"
                stroke="#BEA669"
                strokeWidth="4"
                strokeLinecap="round"
                strokeLinejoin="round"
              /></symbol>
	<symbol id="down-sm-arrow" xmlns="http://www.w3.org/2000/svg" viewBox="0 0 14 8" fill="none"><path
                d="M1 1L7 7L13 1"
                stroke="#BEA669"
                strokeWidth="4"
                strokeLinecap="round"
                strokeLinejoin="round"
              /></symbol>
	<symbol id="sm-arrow" xmlns="http://www.w3.org/2000/svg" viewBox="0 0 7.071 11.313" fill="#000"><path xmlns="http://www.w3.org/2000/svg" d="M5.242,2.415,1,6.657-.415,5.243,3.827,1h0L5.242-.414h0L6.656,1h0L10.9,5.243,9.484,6.657Z" transform="translate(6.657 0.415) rotate(90)"/></symbol>
</svg>
